<mxfile host="app.diagrams.net" modified="2023-07-04T13:12:34.283Z" agent="Mozilla/5.0 (X11; Linux x86_64) AppleWebKit/537.36 (KHTML, like Gecko) Chrome/108.0.0.0 Safari/537.36" version="21.5.2" etag="WnQtdg7YMeS-EhMJZ2n2" type="github">
  <diagram name="PÃ¡gina-1" id="ldWiVXsDohu-6KULA1VM">
    <mxGraphModel>
      <root>
        <mxCell id="0" />
        <mxCell id="1" parent="0" />
      </root>
    </mxGraphModel>
  </diagram>
</mxfile>
